<svg width="212" height="18" viewBox="0 0 212 18" fill="none" xmlns="http://www.w3.org/2000/svg">
<path d="M-7.15256e-07 13.5V-1.07288e-06H3.168V4.986H7.938V-1.07288e-06H11.106V13.5H7.938V7.794H3.168V13.5H-7.15256e-07ZM18.0352 13.77C17.0152 13.77 16.1092 13.542 15.3172 13.086C14.5252 12.63 13.9012 12 13.4452 11.196C13.0012 10.38 12.7792 9.45 12.7792 8.406C12.7792 7.338 13.0012 6.396 13.4452 5.58C13.9012 4.764 14.5252 4.128 15.3172 3.672C16.1092 3.204 17.0152 2.97 18.0352 2.97C19.0672 2.97 19.9732 3.204 20.7532 3.672C21.5452 4.128 22.1632 4.764 22.6072 5.58C23.0632 6.396 23.2912 7.338 23.2912 8.406C23.2912 9.45 23.0632 10.38 22.6072 11.196C22.1632 12 21.5452 12.63 20.7532 13.086C19.9732 13.542 19.0672 13.77 18.0352 13.77ZM18.0352 11.25C18.7072 11.25 19.2532 10.986 19.6732 10.458C20.1052 9.93 20.3212 9.246 20.3212 8.406C20.3212 7.542 20.1052 6.84 19.6732 6.3C19.2532 5.76 18.7072 5.49 18.0352 5.49C17.3632 5.49 16.8112 5.76 16.3792 6.3C15.9592 6.84 15.7492 7.542 15.7492 8.406C15.7492 9.246 15.9592 9.93 16.3792 10.458C16.8112 10.986 17.3632 11.25 18.0352 11.25ZM29.4036 13.77C28.5036 13.77 27.6996 13.578 26.9916 13.194C26.2956 12.81 25.7496 12.282 25.3536 11.61C24.9576 10.926 24.7596 10.146 24.7596 9.27V3.24H27.6756V9.378C27.6756 9.93 27.8376 10.38 28.1616 10.728C28.4856 11.076 28.8996 11.25 29.4036 11.25C29.9076 11.25 30.3216 11.076 30.6456 10.728C30.9696 10.38 31.1316 9.93 31.1316 9.378V3.24H34.0476V9.27C34.0476 10.146 33.8496 10.926 33.4536 11.61C33.0576 12.282 32.5116 12.81 31.8156 13.194C31.1196 13.578 30.3156 13.77 29.4036 13.77ZM39.7711 13.77C38.3911 13.77 37.3051 13.452 36.5131 12.816C35.7211 12.168 35.3251 11.286 35.3251 10.17H37.8991C37.9951 10.686 38.2051 11.064 38.5291 11.304C38.8531 11.544 39.2551 11.664 39.7351 11.664C40.1551 11.664 40.5031 11.58 40.7791 11.412C41.0551 11.244 41.1931 11.004 41.1931 10.692C41.1931 10.452 41.0851 10.272 40.8691 10.152C40.6651 10.032 40.2751 9.9 39.6991 9.756C39.2911 9.66 38.9311 9.576 38.6191 9.504C38.3191 9.42 37.9951 9.318 37.6471 9.198C37.2391 9.054 36.8611 8.88 36.5131 8.676C36.1771 8.472 35.9011 8.196 35.6851 7.848C35.4811 7.488 35.3791 7.02 35.3791 6.444C35.3791 5.796 35.5051 5.25 35.7571 4.806C36.0091 4.362 36.3451 4.008 36.7651 3.744C37.1851 3.468 37.6411 3.27 38.1331 3.15C38.6371 3.03 39.1291 2.97 39.6091 2.97C40.4131 2.97 41.1271 3.114 41.7511 3.402C42.3751 3.678 42.8671 4.068 43.2271 4.572C43.5871 5.064 43.7671 5.64 43.7671 6.3H41.0311C41.0311 5.94 40.8691 5.64 40.5451 5.4C40.2331 5.16 39.8611 5.04 39.4291 5.04C39.1291 5.04 38.8291 5.112 38.5291 5.256C38.2291 5.4 38.0791 5.634 38.0791 5.958C38.0791 6.174 38.1751 6.36 38.3671 6.516C38.5591 6.66 38.9311 6.81 39.4831 6.966C39.6871 7.014 39.9271 7.074 40.2031 7.146C40.4911 7.218 40.7731 7.29 41.0491 7.362C41.3251 7.422 41.5531 7.482 41.7331 7.542C42.5131 7.77 43.0771 8.118 43.4251 8.586C43.7851 9.054 43.9651 9.642 43.9651 10.35C43.9651 11.43 43.5931 12.27 42.8491 12.87C42.1171 13.47 41.0911 13.77 39.7711 13.77ZM49.3944 13.5C48.5544 13.5 47.8764 13.248 47.3604 12.744C46.8564 12.228 46.6044 11.55 46.6044 10.71V5.58H44.9124V3.24H46.6044V0.539999H49.5204V3.24H51.6084V5.58H49.5204V10.206C49.5204 10.434 49.5924 10.62 49.7364 10.764C49.8804 10.908 50.0604 10.98 50.2764 10.98H51.9144V13.5H49.3944ZM57.9551 13.77C56.9351 13.77 56.0291 13.542 55.2371 13.086C54.4451 12.63 53.8211 12 53.3651 11.196C52.9211 10.38 52.6991 9.45 52.6991 8.406C52.6991 7.338 52.9211 6.396 53.3651 5.58C53.8211 4.764 54.4451 4.128 55.2371 3.672C56.0291 3.204 56.9351 2.97 57.9551 2.97C58.9871 2.97 59.8931 3.204 60.6731 3.672C61.4651 4.128 62.0831 4.764 62.5271 5.58C62.9831 6.396 63.2111 7.338 63.2111 8.406C63.2111 9.45 62.9831 10.38 62.5271 11.196C62.0831 12 61.4651 12.63 60.6731 13.086C59.8931 13.542 58.9871 13.77 57.9551 13.77ZM57.9551 11.25C58.6271 11.25 59.1731 10.986 59.5931 10.458C60.0251 9.93 60.2411 9.246 60.2411 8.406C60.2411 7.542 60.0251 6.84 59.5931 6.3C59.1731 5.76 58.6271 5.49 57.9551 5.49C57.2831 5.49 56.7311 5.76 56.2991 6.3C55.8791 6.84 55.6691 7.542 55.6691 8.406C55.6691 9.246 55.8791 9.93 56.2991 10.458C56.7311 10.986 57.2831 11.25 57.9551 11.25ZM64.6971 13.5V7.47C64.6971 6.546 64.8831 5.748 65.2551 5.076C65.6391 4.404 66.1791 3.888 66.8751 3.528C67.5711 3.156 68.3931 2.97 69.3411 2.97C70.2891 2.97 71.1111 3.156 71.8071 3.528C72.5031 3.888 73.0371 4.404 73.4091 5.076C73.7931 5.748 73.9851 6.546 73.9851 7.47V13.5H71.0691V7.506C71.0691 6.858 70.9071 6.36 70.5831 6.012C70.2711 5.664 69.8571 5.49 69.3411 5.49C68.8371 5.49 68.4231 5.664 68.0991 6.012C67.7751 6.36 67.6131 6.858 67.6131 7.506V13.5H64.6971ZM75.6946 16.092C75.9946 15.684 76.2586 15.282 76.4866 14.886C76.7146 14.49 76.9066 14.1 77.0626 13.716C76.0426 13.536 75.5326 12.972 75.5326 12.024C75.5326 11.496 75.7006 11.07 76.0366 10.746C76.3726 10.422 76.8106 10.26 77.3506 10.26C77.9146 10.26 78.3646 10.44 78.7006 10.8C79.0366 11.16 79.2046 11.652 79.2046 12.276C79.2046 12.72 79.0546 13.284 78.7546 13.968C78.4666 14.652 78.0706 15.36 77.5666 16.092H75.6946ZM88.5123 13.77C87.9963 13.77 87.5883 13.62 87.2883 13.32C86.9883 13.008 86.7183 12.456 86.4783 11.664L83.9763 3.24H86.9643L88.6203 9.918L89.9343 4.806C90.1023 4.134 90.3183 3.66 90.5823 3.384C90.8583 3.108 91.2303 2.97 91.6983 2.97C92.1543 2.97 92.5143 3.108 92.7783 3.384C93.0543 3.66 93.2763 4.134 93.4443 4.806L94.7943 9.972L96.5043 3.24H99.3843L96.9183 11.664C96.6903 12.456 96.4263 13.008 96.1263 13.32C95.8383 13.62 95.4303 13.77 94.9023 13.77C94.3503 13.77 93.9243 13.62 93.6243 13.32C93.3363 13.008 93.0783 12.462 92.8503 11.682L91.6803 7.578L90.5103 11.682C90.2823 12.462 90.0243 13.008 89.7363 13.32C89.4483 13.62 89.0403 13.77 88.5123 13.77ZM104.939 13.77C103.895 13.77 102.989 13.554 102.221 13.122C101.453 12.678 100.853 12.054 100.421 11.25C100.001 10.434 99.7909 9.474 99.7909 8.37C99.7909 7.266 100.001 6.312 100.421 5.508C100.841 4.704 101.429 4.08 102.185 3.636C102.953 3.192 103.853 2.97 104.885 2.97C105.953 2.97 106.859 3.21 107.603 3.69C108.359 4.17 108.923 4.866 109.295 5.778C109.679 6.69 109.841 7.788 109.781 9.072H102.725C102.821 9.84 103.073 10.44 103.481 10.872C103.889 11.304 104.417 11.52 105.065 11.52C105.593 11.52 106.025 11.394 106.361 11.142C106.697 10.878 106.907 10.56 106.991 10.188H109.709C109.589 10.932 109.307 11.574 108.863 12.114C108.431 12.642 107.879 13.05 107.207 13.338C106.535 13.626 105.779 13.77 104.939 13.77ZM104.903 5.202C104.315 5.202 103.829 5.394 103.445 5.778C103.061 6.15 102.821 6.654 102.725 7.29H106.901C106.853 6.534 106.631 6 106.235 5.688C105.839 5.364 105.395 5.202 104.903 5.202ZM115.342 13.5V-1.07288e-06H118.258V4.428C118.582 3.96 118.978 3.6 119.446 3.348C119.914 3.096 120.436 2.97 121.012 2.97C121.78 2.97 122.446 3.132 123.01 3.456C123.574 3.78 124.006 4.23 124.306 4.806C124.618 5.382 124.774 6.048 124.774 6.804V13.5H121.858V7.398C121.858 6.81 121.696 6.342 121.372 5.994C121.06 5.646 120.628 5.472 120.076 5.472C119.512 5.472 119.068 5.676 118.744 6.084C118.42 6.48 118.258 7.008 118.258 7.668V13.5H115.342ZM130.926 13.77C130.014 13.77 129.204 13.536 128.496 13.068C127.8 12.6 127.254 11.952 126.858 11.124C126.462 10.296 126.264 9.348 126.264 8.28C126.264 7.236 126.456 6.318 126.84 5.526C127.224 4.722 127.752 4.098 128.424 3.654C129.096 3.198 129.87 2.97 130.746 2.97C131.418 2.97 132.012 3.102 132.528 3.366C133.056 3.618 133.482 3.972 133.806 4.428L133.968 3.24H136.38V13.5H133.968L133.806 12.15C133.494 12.654 133.086 13.05 132.582 13.338C132.078 13.626 131.526 13.77 130.926 13.77ZM131.448 11.214C132.12 11.214 132.654 10.95 133.05 10.422C133.446 9.894 133.644 9.18 133.644 8.28C133.644 7.38 133.446 6.672 133.05 6.156C132.654 5.628 132.12 5.364 131.448 5.364C130.764 5.364 130.224 5.628 129.828 6.156C129.432 6.672 129.234 7.38 129.234 8.28C129.234 9.18 129.432 9.894 129.828 10.422C130.224 10.95 130.764 11.214 131.448 11.214ZM142.756 13.77C142.216 13.77 141.772 13.578 141.424 13.194C141.076 12.81 140.728 12.126 140.38 11.142L137.536 3.24H140.542L142.756 10.044L144.916 3.24H147.85L145.096 11.106C144.748 12.102 144.4 12.798 144.052 13.194C143.716 13.578 143.284 13.77 142.756 13.77ZM153.296 13.77C152.252 13.77 151.346 13.554 150.578 13.122C149.81 12.678 149.21 12.054 148.778 11.25C148.358 10.434 148.148 9.474 148.148 8.37C148.148 7.266 148.358 6.312 148.778 5.508C149.198 4.704 149.786 4.08 150.542 3.636C151.31 3.192 152.21 2.97 153.242 2.97C154.31 2.97 155.216 3.21 155.96 3.69C156.716 4.17 157.28 4.866 157.652 5.778C158.036 6.69 158.198 7.788 158.138 9.072H151.082C151.178 9.84 151.43 10.44 151.838 10.872C152.246 11.304 152.774 11.52 153.422 11.52C153.95 11.52 154.382 11.394 154.718 11.142C155.054 10.878 155.264 10.56 155.348 10.188H158.066C157.946 10.932 157.664 11.574 157.22 12.114C156.788 12.642 156.236 13.05 155.564 13.338C154.892 13.626 154.136 13.77 153.296 13.77ZM153.26 5.202C152.672 5.202 152.186 5.394 151.802 5.778C151.418 6.15 151.178 6.654 151.082 7.29H155.258C155.21 6.534 154.988 6 154.592 5.688C154.196 5.364 153.752 5.202 153.26 5.202ZM167.84 13.77C166.928 13.77 166.118 13.536 165.41 13.068C164.714 12.6 164.168 11.952 163.772 11.124C163.376 10.296 163.178 9.348 163.178 8.28C163.178 7.236 163.37 6.318 163.754 5.526C164.138 4.722 164.666 4.098 165.338 3.654C166.01 3.198 166.784 2.97 167.66 2.97C168.332 2.97 168.926 3.102 169.442 3.366C169.97 3.618 170.396 3.972 170.72 4.428L170.882 3.24H173.294V13.5H170.882L170.72 12.15C170.408 12.654 170 13.05 169.496 13.338C168.992 13.626 168.44 13.77 167.84 13.77ZM168.362 11.214C169.034 11.214 169.568 10.95 169.964 10.422C170.36 9.894 170.558 9.18 170.558 8.28C170.558 7.38 170.36 6.672 169.964 6.156C169.568 5.628 169.034 5.364 168.362 5.364C167.678 5.364 167.138 5.628 166.742 6.156C166.346 6.672 166.148 7.38 166.148 8.28C166.148 9.18 166.346 9.894 166.742 10.422C167.138 10.95 167.678 11.214 168.362 11.214ZM179.45 13.5V-1.07288e-06H182.366V4.248C182.702 3.828 183.11 3.51 183.59 3.294C184.082 3.078 184.61 2.97 185.174 2.97C185.714 2.97 186.26 3.072 186.812 3.276C187.364 3.48 187.868 3.804 188.324 4.248C188.78 4.68 189.146 5.238 189.422 5.922C189.698 6.606 189.836 7.434 189.836 8.406C189.836 9.45 189.65 10.38 189.278 11.196C188.906 12 188.384 12.63 187.712 13.086C187.04 13.542 186.248 13.77 185.336 13.77C184.688 13.77 184.082 13.62 183.518 13.32C182.954 13.008 182.498 12.564 182.15 11.988L181.916 13.5H179.45ZM184.562 11.214C185.27 11.214 185.828 10.95 186.236 10.422C186.656 9.894 186.866 9.18 186.866 8.28C186.866 7.38 186.656 6.672 186.236 6.156C185.828 5.628 185.27 5.364 184.562 5.364C183.89 5.364 183.356 5.628 182.96 6.156C182.564 6.672 182.366 7.38 182.366 8.28C182.366 9.18 182.564 9.894 182.96 10.422C183.356 10.95 183.89 11.214 184.562 11.214ZM195.974 13.77C195.074 13.77 194.27 13.578 193.562 13.194C192.866 12.81 192.32 12.282 191.924 11.61C191.528 10.926 191.33 10.146 191.33 9.27V3.24H194.246V9.378C194.246 9.93 194.408 10.38 194.732 10.728C195.056 11.076 195.47 11.25 195.974 11.25C196.478 11.25 196.892 11.076 197.216 10.728C197.54 10.38 197.702 9.93 197.702 9.378V3.24H200.618V9.27C200.618 10.146 200.42 10.926 200.024 11.61C199.628 12.282 199.082 12.81 198.386 13.194C197.69 13.578 196.886 13.77 195.974 13.77ZM206.272 12.654C205.492 12.654 204.784 12.456 204.148 12.06C203.524 11.664 203.026 11.106 202.654 10.386C202.282 9.654 202.096 8.796 202.096 7.812C202.096 6.852 202.288 6.012 202.672 5.292C203.056 4.56 203.578 3.99 204.238 3.582C204.898 3.174 205.636 2.97 206.452 2.97C207.052 2.97 207.58 3.09 208.036 3.33C208.504 3.57 208.9 3.9 209.224 4.32L209.35 3.24H211.924V12.564C211.924 13.428 211.714 14.196 211.294 14.868C210.874 15.54 210.286 16.062 209.53 16.434C208.786 16.818 207.904 17.01 206.884 17.01C206.104 17.01 205.378 16.854 204.706 16.542C204.034 16.23 203.488 15.792 203.068 15.228C202.66 14.664 202.444 14.01 202.42 13.266H204.958C205.102 13.758 205.33 14.112 205.642 14.328C205.954 14.556 206.368 14.67 206.884 14.67C207.52 14.67 208.036 14.484 208.432 14.112C208.828 13.752 209.026 13.236 209.026 12.564V11.304C208.762 11.7 208.408 12.024 207.964 12.276C207.52 12.528 206.956 12.654 206.272 12.654ZM206.992 10.368C207.628 10.368 208.126 10.152 208.486 9.72C208.846 9.276 209.026 8.694 209.026 7.974C209.026 7.266 208.846 6.672 208.486 6.192C208.126 5.712 207.628 5.472 206.992 5.472C206.368 5.472 205.888 5.706 205.552 6.174C205.228 6.642 205.066 7.242 205.066 7.974C205.066 8.694 205.228 9.276 205.552 9.72C205.876 10.152 206.356 10.368 206.992 10.368Z" fill="black"/>
</svg>
