<svg width="16" height="16" viewBox="0 0 16 16" fill="none" xmlns="http://www.w3.org/2000/svg">
<g clip-path="url(#clip0_31_571)">
<path d="M11.3333 2.00028C11.5084 1.82519 11.7163 1.68629 11.9451 1.59153C12.1738 1.49677 12.419 1.448 12.6666 1.448C12.9143 1.448 13.1595 1.49677 13.3882 1.59153C13.617 1.68629 13.8249 1.82519 14 2.00028C14.1751 2.17538 14.314 2.38325 14.4087 2.61202C14.5035 2.84079 14.5523 3.08599 14.5523 3.33362C14.5523 3.58124 14.5035 3.82644 14.4087 4.05521C14.314 4.28398 14.1751 4.49185 14 4.66695L4.99998 13.6669L1.33331 14.6669L2.33331 11.0003L11.3333 2.00028Z" stroke="white" stroke-width="1.25" stroke-linecap="round" stroke-linejoin="round"/>
</g>
<defs>
<clipPath id="clip0_31_571">
<rect width="16" height="16" fill="white"/>
</clipPath>
</defs>
</svg>
