<svg width="128" height="128" viewBox="0 0 128 128" fill="none" xmlns="http://www.w3.org/2000/svg">
<path d="M69.6855 62.4326C82.4205 81.348 80.5257 107.84 64 124.5C47.4744 107.84 45.5789 81.3479 58.3135 62.4326C59.8868 63.6479 61.8582 64.373 64 64.373C66.1415 64.373 68.1123 63.6476 69.6855 62.4326Z" fill="#E74C3C"/>
<path d="M63.9999 5C81.4626 22.4627 89.6115 53.8959 87.2831 79.5078H40.7167C38.3884 53.8959 46.5373 22.4627 63.9999 5ZM63.9999 45.7461C58.8563 45.7461 54.6865 49.9159 54.6865 55.0596C54.6865 60.2032 58.8563 64.373 63.9999 64.373C69.1436 64.373 73.3134 60.2032 73.3134 55.0596C73.3134 49.9159 69.1436 45.7461 63.9999 45.7461Z" fill="black"/>
<path d="M33.7311 74.8506C22.0893 79.5073 15.1042 88.8207 15.1042 102.791C15.1042 109.776 16.8505 114.433 20.9251 115.597C24.4177 116.761 27.9102 115.015 31.4028 112.104L51.1938 95.8058V74.8506H33.7311Z" fill="black"/>
<path d="M94.2686 74.8506C105.91 79.5073 112.895 88.8207 112.895 102.791C112.895 109.776 111.149 114.433 107.075 115.597C103.582 116.761 100.089 115.015 96.597 112.104L76.8059 95.8058V74.8506H94.2686Z" fill="black"/>
<path d="M52.3581 79.5078H75.6417C80.2984 79.5078 82.6268 81.8362 82.6268 85.3287V95.8063H45.373V85.3287C45.373 81.8362 47.7014 79.5078 52.3581 79.5078Z" fill="black"/>
</svg>
