<svg width="16" height="16" viewBox="0 0 16 16" fill="none" xmlns="http://www.w3.org/2000/svg">
<path d="M10.6667 10.6667L8.00001 8L5.33334 10.6667" stroke="white" stroke-width="1.25" stroke-linecap="round" stroke-linejoin="round"/>
<path d="M8 8V14" stroke="white" stroke-width="1.25" stroke-linecap="round" stroke-linejoin="round"/>
<path d="M13.5933 12.261C14.2435 11.9066 14.7572 11.3456 15.0532 10.6668C15.3493 9.98796 15.4108 9.22987 15.2281 8.51217C15.0454 7.79448 14.629 7.15805 14.0444 6.70334C13.4599 6.24863 12.7406 6.00154 12 6.00105H11.16C10.9582 5.22054 10.5821 4.49594 10.0599 3.88171C9.5378 3.26748 8.8832 2.77961 8.14537 2.45479C7.40754 2.12996 6.60567 1.97662 5.80005 2.0063C4.99443 2.03598 4.20602 2.24791 3.49409 2.62616C2.78216 3.0044 2.16525 3.53912 1.68972 4.1901C1.2142 4.84109 0.892434 5.5914 0.748627 6.38464C0.60482 7.17788 0.64271 7.9934 0.859449 8.76989C1.07619 9.54637 1.46613 10.2636 1.99997 10.8677" stroke="white" stroke-width="1.25" stroke-linecap="round" stroke-linejoin="round"/>
<path d="M10.6667 10.6667L8.00001 8L5.33334 10.6667" stroke="white" stroke-width="1.25" stroke-linecap="round" stroke-linejoin="round"/>
</svg>
